<?xml version="1.0" encoding="UTF-8"?>
<svg xmlns="http://www.w3.org/2000/svg" version="1.1" viewBox="0 0 100 24.1">
  <defs>
    <style>
      .cls-1 {
        fill: #1a214f;
      }

      .cls-2 {
        fill: #1f93d1;
      }
    </style>
  </defs>
  <g>
    <g id="Layer_1">
      <g>
        <g>
          <path class="cls-1" d="M25.5,19.1v-7.3h2.8c1.3,0,2.2.7,2.2,1.8s-.5,1.2-1,1.5c.7.3,1.3.8,1.3,1.8s-.9,2.3-2.5,2.3h-2.8ZM27.2,14.5h.9c.4,0,.7-.2.7-.7s-.3-.7-.7-.7h-.9v1.3ZM27.2,17.5h1c.5,0,.8-.3.8-.8s-.4-.8-.8-.8h-1v1.7Z"/>
          <path class="cls-1" d="M31.3,16.4c0-1.8,1.3-2.8,2.6-2.8s1.4.3,1.6.7v-.6h1.6v5.3h-1.6v-.6c-.3.4-.9.7-1.6.7-1.4,0-2.6-1-2.6-2.8ZM35.6,16.4c0-.8-.6-1.3-1.3-1.3s-1.3.5-1.3,1.3.6,1.3,1.3,1.3,1.3-.5,1.3-1.3Z"/>
          <path class="cls-1" d="M37.9,19.1v-7.3h1.7v2.7c.2-.5.8-.8,1.6-.8s1.6.7,1.6,1.9v3.6h-1.7v-3.1c0-.5-.3-.8-.8-.8s-.8.3-.8.8v3.1h-1.7Z"/>
          <path class="cls-1" d="M43.3,12.3c0-.5.4-1,1-1s1,.4,1,1-.4,1-1,1-1-.4-1-1ZM43.4,19.1v-5.3h1.7v5.3h-1.7Z"/>
          <path class="cls-1" d="M45.7,16.4c0-1.8,1.4-2.8,2.7-2.8s1.2.3,1.5.5v-2.4h1.7v7.3h-1.6v-.6c-.3.4-.9.7-1.6.7-1.4,0-2.6-1-2.6-2.8ZM49.9,16.4c0-.8-.6-1.3-1.3-1.3s-1.3.5-1.3,1.3.6,1.3,1.3,1.3,1.3-.5,1.3-1.3Z"/>
          <path class="cls-1" d="M52.2,19.1v-7.3h1.7v2.7c.2-.5.8-.8,1.6-.8s1.6.7,1.6,1.9v3.6h-1.7v-3.1c0-.5-.3-.8-.8-.8s-.8.3-.8.8v3.1h-1.7Z"/>
          <path class="cls-1" d="M65,19.1l-.5-1.4h-2.6l-.5,1.4h-1.9l2.5-7.3h2.2l2.6,7.3h-1.9ZM62.5,16.1h1.5l-.4-1.2c-.1-.4-.2-.7-.4-1.1-.1.4-.2.7-.4,1.1l-.4,1.2Z"/>
          <path class="cls-1" d="M67.3,19.1v-7.3h1.7v7.3h-1.7Z"/>
          <path class="cls-1" d="M69.5,16.3v-1.4h3v1.4h-3Z"/>
          <path class="cls-1" d="M78.7,19.1h-1.9l-2.1-3.3v3.3h-1.7v-7.3h1.7v3.1l2-3.1h2l-2.3,3.6,2.4,3.8Z"/>
          <path class="cls-1" d="M79.1,19.1v-7.3h1.7v2.7c.2-.5.8-.8,1.6-.8s1.6.7,1.6,1.9v3.6h-1.7v-3.1c0-.5-.3-.8-.8-.8s-.8.3-.8.8v3.1h-1.7Z"/>
          <path class="cls-1" d="M84.5,16.4c0-1.8,1.3-2.8,2.6-2.8s1.4.3,1.6.7v-.6h1.6v5.3h-1.6v-.6c-.3.4-.9.7-1.6.7-1.4,0-2.6-1-2.6-2.8ZM88.8,16.4c0-.8-.6-1.3-1.3-1.3s-1.3.5-1.3,1.3.6,1.3,1.3,1.3,1.3-.5,1.3-1.3Z"/>
          <path class="cls-1" d="M90.9,12.3c0-.5.4-1,1-1s1,.4,1,1-.4,1-1,1-1-.4-1-1ZM91.1,19.1v-5.3h1.7v5.3h-1.7Z"/>
          <path class="cls-1" d="M96.7,13.7v1.7h-.8c-.6,0-.8.3-.8.8v2.8h-1.7v-5.3h1.6v1c.1-.7.7-1,1.2-1h.5Z"/>
        </g>
        <polygon class="cls-2" points="8.9 22.8 3.3 19.4 3.3 1.2 8.9 4.4 8.9 20.9 19.3 18.3 14.6 15.4 14.6 7.7 20.2 10.9 20.2 18.1 20.2 18.9 20.2 19.8 8.9 22.8"/>
      </g>
    </g>
  </g>
</svg>